{
    "asset" : {
        "generator" : "Khronos glTF Blender I/O v1.6.16",
        "version" : "2.0"
    },
    "scene" : 0,
    "scenes" : [
        {
            "name" : "Scene",
            "nodes" : [
                0
            ]
        }
    ],
    "nodes" : [
        {
            "mesh" : 0,
            "name" : "living room",
            "scale" : [
                15.76537799835205,
                2.784930467605591,
                15.76537799835205
            ]
        }
    ],
    "materials" : [
        {
            "doubleSided" : true,
            "name" : "sol.002",
            "pbrMetallicRoughness" : {
                "baseColorFactor" : [
                    0.06680644303560257,
                    0.06680644303560257,
                    0.06680644303560257,
                    0
                ],
                "metallicFactor" : 0,
                "roughnessFactor" : 0.690034806728363
            }
        },
        {
            "doubleSided" : true,
            "name" : "Material.005",
            "pbrMetallicRoughness" : {
                "baseColorFactor" : [
                    1,
                    0.9221121668815613,
                    0.779251217842102,
                    0
                ],
                "metallicFactor" : 0,
                "roughnessFactor" : 0.690034806728363
            }
        },
        {
            "doubleSided" : true,
            "name" : "Material.006",
            "pbrMetallicRoughness" : {
                "baseColorFactor" : [
                    0.6150861978530884,
                    0.6045900583267212,
                    0.5269458889961243,
                    0
                ],
                "metallicFactor" : 0,
                "roughnessFactor" : 0.690034806728363
            }
        }
    ],
    "meshes" : [
        {
            "name" : "Cube.006",
            "primitives" : [
                {
                    "attributes" : {
                        "POSITION" : 0,
                        "NORMAL" : 1
                    },
                    "indices" : 2,
                    "material" : 0
                },
                {
                    "attributes" : {
                        "POSITION" : 3,
                        "NORMAL" : 4
                    },
                    "indices" : 5,
                    "material" : 1
                },
                {
                    "attributes" : {
                        "POSITION" : 6,
                        "NORMAL" : 7
                    },
                    "indices" : 8,
                    "material" : 2
                }
            ]
        }
    ],
    "accessors" : [
        {
            "bufferView" : 0,
            "componentType" : 5126,
            "count" : 8,
            "max" : [
                1.327894926071167,
                -4.410743713378906e-06,
                1.3517341613769531
            ],
            "min" : [
                -1.2237112522125244,
                -0.03465092182159424,
                -1.1964125633239746
            ],
            "type" : "VEC3"
        },
        {
            "bufferView" : 1,
            "componentType" : 5126,
            "count" : 8,
            "type" : "VEC3"
        },
        {
            "bufferView" : 2,
            "componentType" : 5123,
            "count" : 12,
            "type" : "SCALAR"
        },
        {
            "bufferView" : 3,
            "componentType" : 5126,
            "count" : 12,
            "max" : [
                1.2900071144104004,
                5.168514251708984,
                1.3517338037490845
            ],
            "min" : [
                -1.258496880531311,
                0.034780800342559814,
                -1.2168097496032715
            ],
            "type" : "VEC3"
        },
        {
            "bufferView" : 4,
            "componentType" : 5126,
            "count" : 12,
            "type" : "VEC3"
        },
        {
            "bufferView" : 5,
            "componentType" : 5123,
            "count" : 30,
            "type" : "SCALAR"
        },
        {
            "bufferView" : 6,
            "componentType" : 5126,
            "count" : 612,
            "max" : [
                1.3334593772888184,
                5.202584266662598,
                1.3853538036346436
            ],
            "min" : [
                -1.3361892700195312,
                -0.13142430782318115,
                -1.307478427886963
            ],
            "type" : "VEC3"
        },
        {
            "bufferView" : 7,
            "componentType" : 5126,
            "count" : 612,
            "type" : "VEC3"
        },
        {
            "bufferView" : 8,
            "componentType" : 5123,
            "count" : 966,
            "type" : "SCALAR"
        }
    ],
    "bufferViews" : [
        {
            "buffer" : 0,
            "byteLength" : 96,
            "byteOffset" : 0
        },
        {
            "buffer" : 0,
            "byteLength" : 96,
            "byteOffset" : 96
        },
        {
            "buffer" : 0,
            "byteLength" : 24,
            "byteOffset" : 192
        },
        {
            "buffer" : 0,
            "byteLength" : 144,
            "byteOffset" : 216
        },
        {
            "buffer" : 0,
            "byteLength" : 144,
            "byteOffset" : 360
        },
        {
            "buffer" : 0,
            "byteLength" : 60,
            "byteOffset" : 504
        },
        {
            "buffer" : 0,
            "byteLength" : 7344,
            "byteOffset" : 564
        },
        {
            "buffer" : 0,
            "byteLength" : 7344,
            "byteOffset" : 7908
        },
        {
            "buffer" : 0,
            "byteLength" : 1932,
            "byteOffset" : 15252
        }
    ],
    "buffers" : [
        {
            "byteLength" : 17184,
            "uri" : "data:application/octet-stream;base64,"
        }
    ]
}
